<svg width="73" height="73" viewBox="0 0 73 73" fill="none" xmlns="http://www.w3.org/2000/svg">
<path d="M31.3337 62C38.1377 61.9986 44.7457 59.7208 50.1055 55.5293L66.9568 72.3806L72.3772 66.9603L55.5258 50.109C59.7195 44.7487 61.9987 38.1391 62.0003 31.3333C62.0003 14.4245 48.2425 0.666626 31.3337 0.666626C14.4248 0.666626 0.666992 14.4245 0.666992 31.3333C0.666992 48.2421 14.4248 62 31.3337 62ZM31.3337 8.33329C44.0182 8.33329 54.3337 18.6488 54.3337 31.3333C54.3337 44.0178 44.0182 54.3333 31.3337 54.3333C18.6492 54.3333 8.33366 44.0178 8.33366 31.3333C8.33366 18.6488 18.6492 8.33329 31.3337 8.33329Z" fill="black"/>
</svg>
