<svg width="81" height="77" viewBox="0 0 81 77" fill="none" xmlns="http://www.w3.org/2000/svg">
<path d="M78.3303 27.2371L54.3479 23.7516L43.6271 2.01726C43.3343 1.42219 42.8526 0.940462 42.2575 0.647648C40.7651 -0.0891112 38.9515 0.524855 38.2053 2.01726L27.4845 23.7516L3.50208 27.2371C2.84089 27.3315 2.23637 27.6432 1.77353 28.1155C1.21399 28.6906 0.905655 29.4644 0.916281 30.2667C0.926908 31.069 1.25563 31.8343 1.8302 32.3944L19.1818 49.3115L15.0824 73.1995C14.9863 73.7552 15.0478 74.3267 15.2599 74.8492C15.4721 75.3717 15.8264 75.8243 16.2827 76.1557C16.739 76.4871 17.279 76.6841 17.8415 76.7242C18.404 76.7643 18.9665 76.646 19.4652 76.3827L40.9162 65.1046L62.3672 76.3827C62.9529 76.6944 63.6329 76.7983 64.2847 76.6849C65.9282 76.4016 67.0334 74.843 66.75 73.1995L62.6506 49.3115L80.0022 32.3944C80.4745 31.9316 80.7862 31.327 80.8807 30.6658C81.1357 29.0129 79.9833 27.4827 78.3303 27.2371V27.2371Z" fill="#FF99FC"/>
</svg>
